<?xml version="1.0" standalone="no"?>
<!DOCTYPE svg PUBLIC "-//W3C//DTD SVG 20010904//EN"
 "http://www.w3.org/TR/2001/REC-SVG-20010904/DTD/svg10.dtd">
<svg version="1.0" xmlns="http://www.w3.org/2000/svg"
 width="612.000000pt" height="612.000000pt" viewBox="0 0 612.000000 612.000000"
 preserveAspectRatio="xMidYMid meet">
<metadata>
Created by potrace 1.11, written by Peter Selinger 2001-2013
</metadata>
<g transform="translate(0.000000,612.000000) scale(0.100000,-0.100000)"
fill="#000000" stroke="none">
<path d="M2939 5876 c-2 -2 -213 -57 -469 -121 -256 -65 -468 -119 -471 -121
-4 -2 11 -72 32 -156 21 -84 39 -160 39 -169 0 -10 -45 -41 -122 -85 -209
-118 -385 -251 -548 -415 l-76 -77 -110 65 c-60 36 -128 76 -150 89 l-41 24
-246 -412 c-135 -227 -249 -421 -252 -430 -5 -13 24 -34 139 -103 80 -47 146
-89 146 -94 0 -4 -11 -45 -25 -92 -66 -217 -94 -395 -103 -649 l-7 -185 -164
-42 c-90 -23 -164 -43 -166 -45 -3 -4 236 -951 242 -958 3 -3 294 64 328 77 6
2 33 -38 60 -89 112 -209 238 -380 402 -549 57 -58 103 -110 103 -116 0 -5
-38 -74 -85 -153 -47 -78 -84 -144 -83 -146 7 -6 830 -495 842 -500 9 -3 41
42 96 136 46 78 88 144 95 146 6 3 59 -9 116 -25 215 -63 395 -90 648 -100
l165 -6 41 -165 c37 -146 44 -165 61 -162 19 3 705 176 845 213 l76 20 -75
307 c-41 169 -78 310 -81 315 -4 4 -47 -11 -94 -33 -181 -85 -459 -159 -674
-180 -415 -40 -827 40 -1199 234 -215 112 -352 212 -523 379 -180 176 -312
359 -426 592 -146 296 -211 558 -222 886 -9 285 20 489 109 757 183 553 575
999 1103 1257 214 105 386 161 620 201 175 30 553 29 680 -2 17 -4 34 18 109
136 48 78 86 143 85 144 -8 6 -177 36 -264 46 -49 7 -160 13 -245 15 l-155 3
-44 171 c-40 155 -49 180 -62 167z"/>
<path d="M2992 4669 c-342 -44 -595 -330 -596 -674 -1 -124 13 -184 71 -304
80 -167 238 -299 428 -357 44 -14 91 -18 180 -18 105 0 130 4 200 28 118 40
180 80 271 170 127 127 188 260 201 436 16 227 -95 462 -282 595 -138 99 -312
145 -473 124z"/>
<path d="M2962 3229 c-526 -52 -989 -498 -1156 -1114 -55 -202 -58 -179 27
-260 223 -216 501 -378 787 -460 167 -48 283 -66 470 -72 358 -12 689 54 985
198 97 47 251 143 307 191 l27 23 -15 106 c-44 331 -171 643 -359 884 -280
358 -674 544 -1073 504z"/>
</g>
</svg>
