<?xml version="1.0" encoding="utf-8"?>
<!-- Generator: Adobe Illustrator 21.0.0, SVG Export Plug-In . SVG Version: 6.00 Build 0)  -->
<svg version="1.1" id="Layer_1" xmlns="http://www.w3.org/2000/svg" xmlns:xlink="http://www.w3.org/1999/xlink" x="0px" y="0px"
	 viewBox="0 0 305 306.4" style="enable-background:new 0 0 305 306.4;" xml:space="preserve">
<style type="text/css">
	.st0{fill:#666766;}
	.st1{clip-path:url(#SVGID_2_);fill:#EC008C;}
	.st2{fill:#EC008C;}
	.st3{clip-path:url(#SVGID_4_);fill:#666766;}
</style>
<path class="st0" d="M206.5,250.5c-2.9,1.5-5.9,2.9-9,4.1c-0.2,0.1-0.3,0.1-0.5,0.2c-2,0.8-3.9,1.5-5.9,2.1c-0.1,0-0.2,0.1-0.3,0.1
	c-4.3,1.4-8.6,2.5-13,3.3c-0.1,0-0.2,0-0.3,0.1c-2.1,0.4-4.1,0.7-6.2,1c-0.2,0-0.3,0-0.5,0.1c-4.4,0.5-8.9,0.8-13.4,0.8
	c-10.1,0-20.4-1.4-30.3-4.4c-2-0.6-3.9-1.2-5.8-1.9c-0.6-0.2-1.1-0.4-1.7-0.6c-1.4-0.5-2.8-1.1-4.2-1.7c-0.6-0.3-1.3-0.5-1.9-0.8
	c-1.4-0.6-2.7-1.2-4-1.9c-0.6-0.3-1.2-0.6-1.7-0.9c-1.9-1-3.7-2-5.6-3.1c-1.8-1.1-3.6-2.2-5.4-3.4c-0.5-0.4-1.1-0.7-1.6-1.1
	c-1.2-0.9-2.4-1.7-3.6-2.6c-0.6-0.4-1.1-0.9-1.6-1.3c-1.2-0.9-2.3-1.9-3.5-2.9c-0.4-0.4-0.9-0.8-1.3-1.2c-1.5-1.4-3-2.8-4.5-4.2
	c-7.3-7.4-13.5-15.7-18.3-24.6c-2.2-3.9-4-8-5.7-12.2c-0.1-0.2-0.1-0.3-0.2-0.5c-0.8-2-1.5-3.9-2.1-5.9c0-0.1-0.1-0.2-0.1-0.3
	c-1.4-4.3-2.5-8.6-3.3-13c0-0.1,0-0.2-0.1-0.3c-0.4-2.1-0.7-4.1-1-6.2c0-0.2,0-0.3-0.1-0.5c-0.5-4.4-0.8-8.9-0.8-13.4
	c0-10.1,1.4-20.4,4.4-30.3c0.6-2,1.2-3.9,1.9-5.8c0.2-0.6,0.4-1.1,0.6-1.7c0.5-1.4,1.1-2.8,1.7-4.2c0.3-0.6,0.5-1.3,0.8-1.9
	c0.6-1.4,1.2-2.7,1.9-4c0.3-0.6,0.6-1.2,0.9-1.7c1-1.9,2-3.7,3.1-5.6c1.1-1.8,2.2-3.6,3.4-5.4c0.4-0.5,0.7-1.1,1.1-1.6
	c0.9-1.2,1.7-2.4,2.6-3.6c0.4-0.6,0.9-1.1,1.3-1.6c0.9-1.2,1.9-2.3,2.9-3.5c0.4-0.4,0.8-0.9,1.2-1.3c1.4-1.5,2.8-3,4.2-4.5
	c7.4-7.3,15.7-13.5,24.6-18.3c3.9-2.2,8-4,12.2-5.7c0.2-0.1,0.3-0.1,0.5-0.2c2-0.8,3.9-1.5,5.9-2.1c0.1,0,0.2-0.1,0.3-0.1
	c4.2-1.4,8.6-2.5,13-3.3c0.1,0,0.2,0,0.3-0.1c2.1-0.4,4.1-0.7,6.2-1c0.2,0,0.3,0,0.5-0.1c4.4-0.5,8.9-0.8,13.4-0.8
	c6.1,0,12.1,0.5,18.2,1.6l9-14.3c-11.1-2.6-22.4-3.6-33.6-3L147.2,12L98.6,24.3l4.3,17.1c-14,6.8-26.8,16.1-37.6,28l-15.1-9
	l-25.6,43l15.1,9c-5.3,15.2-7.4,30.9-6.7,46.4L16,163.2l12.3,48.5l17.1-4.3c6.8,14,16.1,26.8,28,37.6l-9,15.1l43,25.6l9-15.1
	c15.2,5.3,30.9,7.4,46.4,6.7l4.3,17.1l47.2-12L206.5,250.5z"/>
<g>
	<defs>
		<circle id="SVGID_1_" cx="163.9" cy="129.9" r="117.3"/>
	</defs>
	<clipPath id="SVGID_2_">
		<use xlink:href="#SVGID_1_"  style="overflow:visible;"/>
	</clipPath>
	<ellipse class="st1" cx="145.2" cy="211.1" rx="63.7" ry="79.2"/>
</g>
<g>
	<g>
		<g>
			<g>
				<path class="st2" d="M141.7,67.9c-0.1,0-0.2,0-0.3,0v0c-16.8,0.3-30.4,14.1-30.4,31s13.5,30.6,30.4,31v0c0.1,0,0.2,0,0.3,0
					c0.1,0,0.2,0,0.3,0v0c16.8-0.3,30.4-14.1,30.4-31s-13.5-30.7-30.4-31v0C141.9,67.9,141.8,67.9,141.7,67.9z"/>
			</g>
		</g>
	</g>
	<g>
		<g>
			<g>
				<path class="st0" d="M209.1,37.9c-0.1,0-0.2,0-0.4,0v0c-19.9,0.4-36,16.7-36,36.7c0,20,16,36.3,36,36.7v0c0.1,0,0.2,0,0.4,0
					c0.1,0,0.2,0,0.4,0v0c19.9-0.4,36-16.6,36-36.7c0-20-16-36.3-36-36.7v0C209.4,37.9,209.2,37.9,209.1,37.9z"/>
			</g>
		</g>
	</g>
</g>
<g>
	<defs>
		<circle id="SVGID_3_" cx="163.9" cy="129.9" r="117.3"/>
	</defs>
	<clipPath id="SVGID_4_">
		<use xlink:href="#SVGID_3_"  style="overflow:visible;"/>
	</clipPath>
	<ellipse class="st3" cx="209.1" cy="204.8" rx="72.1" ry="89.6"/>
</g>
</svg>
