<?xml version="1.0" encoding="utf-8"?>
<!-- Generator: Adobe Illustrator 17.0.0, SVG Export Plug-In . SVG Version: 6.00 Build 0)  -->
<!DOCTYPE svg PUBLIC "-//W3C//DTD SVG 1.1//EN" "http://www.w3.org/Graphics/SVG/1.1/DTD/svg11.dtd">
<svg version="1.1" id="Layer_1" xmlns="http://www.w3.org/2000/svg" xmlns:xlink="http://www.w3.org/1999/xlink" x="0px" y="0px"
	 width="640px" height="360px" viewBox="0 0 640 360" enable-background="new 0 0 640 360" xml:space="preserve">
<path fill="#666766" d="M383.446,294.321c-3.407,1.762-6.932,3.407-10.574,4.817c-0.235,0.117-0.353,0.117-0.587,0.235
	c-2.35,0.94-4.582,1.762-6.932,2.467c-0.117,0-0.235,0.117-0.352,0.117c-5.052,1.645-10.104,2.937-15.274,3.877
	c-0.118,0-0.235,0-0.353,0.117c-2.467,0.47-4.817,0.822-7.285,1.175c-0.235,0-0.352,0-0.587,0.117
	c-5.17,0.587-10.457,0.94-15.744,0.94c-11.867,0-23.969-1.645-35.601-5.17c-2.35-0.705-4.582-1.41-6.815-2.232
	c-0.705-0.235-1.292-0.47-1.997-0.705c-1.645-0.587-3.29-1.292-4.935-1.997c-0.705-0.352-1.527-0.587-2.232-0.94
	c-1.645-0.705-3.172-1.41-4.7-2.232c-0.705-0.353-1.41-0.705-1.997-1.057c-2.232-1.175-4.347-2.35-6.58-3.642
	c-2.115-1.292-4.23-2.585-6.345-3.995c-0.587-0.47-1.292-0.822-1.88-1.292c-1.41-1.057-2.82-1.997-4.23-3.055
	c-0.705-0.47-1.292-1.057-1.88-1.527c-1.41-1.057-2.702-2.232-4.112-3.407c-0.47-0.47-1.057-0.94-1.527-1.41
	c-1.762-1.645-3.525-3.29-5.287-4.935c-8.577-8.694-15.862-18.446-21.501-28.903c-2.585-4.582-4.7-9.399-6.697-14.334
	c-0.117-0.235-0.117-0.352-0.235-0.587c-0.94-2.35-1.762-4.582-2.467-6.932c0-0.117-0.117-0.235-0.117-0.352
	c-1.645-5.052-2.937-10.104-3.877-15.274c0-0.117,0-0.235-0.117-0.352c-0.47-2.467-0.822-4.817-1.175-7.285
	c0-0.235,0-0.352-0.117-0.587c-0.587-5.17-0.94-10.457-0.94-15.744c0-11.867,1.645-23.969,5.17-35.601
	c0.705-2.35,1.41-4.582,2.232-6.815c0.235-0.705,0.47-1.292,0.705-1.997c0.587-1.645,1.292-3.29,1.997-4.935
	c0.352-0.705,0.587-1.527,0.94-2.232c0.705-1.645,1.41-3.172,2.232-4.7c0.352-0.705,0.705-1.41,1.057-1.997
	c1.175-2.232,2.35-4.347,3.642-6.58c1.292-2.115,2.585-4.23,3.995-6.345c0.47-0.587,0.822-1.292,1.292-1.88
	c1.057-1.41,1.997-2.82,3.055-4.23c0.47-0.705,1.057-1.292,1.527-1.88c1.057-1.41,2.232-2.702,3.407-4.112
	c0.47-0.47,0.94-1.057,1.41-1.527c1.645-1.762,3.29-3.525,4.935-5.287c8.695-8.577,18.446-15.862,28.903-21.501
	c4.582-2.585,9.4-4.7,14.334-6.697c0.235-0.117,0.352-0.117,0.587-0.235c2.35-0.94,4.582-1.762,6.932-2.467
	c0.117,0,0.235-0.117,0.352-0.117c4.935-1.645,10.104-2.937,15.274-3.877c0.117,0,0.235,0,0.352-0.117
	c2.467-0.47,4.817-0.822,7.285-1.175c0.235,0,0.352,0,0.587-0.117c5.17-0.587,10.457-0.94,15.744-0.94
	c7.167,0,14.217,0.587,21.384,1.88l10.574-16.802c-13.042-3.055-26.319-4.23-39.478-3.525l-5.052-20.326l-57.102,14.452
	l5.052,20.091c-16.449,7.99-31.488,18.916-44.178,32.898l-17.742-10.574l-30.078,50.522l17.742,10.574
	c-6.227,17.859-8.695,36.305-7.872,54.517l-19.974,5.17l14.452,56.984l20.091-5.052c7.99,16.449,18.916,31.488,32.898,44.178
	l-10.574,17.742l50.522,30.078l10.574-17.742c17.859,6.227,36.305,8.695,54.517,7.872l5.052,20.091l55.457-14.099L383.446,294.321z"
	/>
<g>
	<defs>
		<circle id="SVGID_1_" cx="333.394" cy="152.624" r="137.82"/>
	</defs>
	<clipPath id="SVGID_2_">
		<use xlink:href="#SVGID_1_"  overflow="visible"/>
	</clipPath>
	<ellipse clip-path="url(#SVGID_2_)" fill="#31B700" cx="311.423" cy="248.029" rx="74.843" ry="93.055"/>
</g>
<g>
	<g>
		<g>
			<path fill="#31B700" d="M307.311,79.778c-0.117,0-0.235,0-0.352,0l0,0c-19.739,0.352-35.718,16.567-35.718,36.423
				s15.862,35.953,35.718,36.423l0,0c0.117,0,0.235,0,0.352,0s0.235,0,0.352,0l0,0c19.739-0.352,35.718-16.567,35.718-36.423
				s-15.862-36.07-35.718-36.423l0,0C307.546,79.778,307.428,79.778,307.311,79.778z"/>
		</g>
	</g>
</g>
<g>
	<g>
		<g>
			<path fill="#666766" d="M386.501,44.53c-0.117,0-0.235,0-0.47,0l0,0C362.65,45,343.734,64.151,343.734,87.65
				s18.799,42.65,42.298,43.12l0,0c0.117,0,0.235,0,0.47,0c0.117,0,0.235,0,0.47,0l0,0c23.381-0.47,42.298-19.504,42.298-43.12
				c0-23.499-18.799-42.65-42.298-43.12l0,0C386.854,44.53,386.619,44.53,386.501,44.53z"/>
		</g>
	</g>
</g>
<g>
	<g>
		<defs>
			<circle id="SVGID_3_" cx="333.394" cy="152.624" r="137.82"/>
		</defs>
		<clipPath id="SVGID_4_">
			<use xlink:href="#SVGID_3_"  overflow="visible"/>
		</clipPath>
		<ellipse clip-path="url(#SVGID_4_)" fill="#666766" cx="386.501" cy="240.627" rx="84.713" ry="105.274"/>
	</g>
</g>
</svg>
